<?xml version="1.0" standalone="no"?>
<!DOCTYPE svg PUBLIC "-//W3C//DTD SVG 20010904//EN"
 "http://www.w3.org/TR/2001/REC-SVG-20010904/DTD/svg10.dtd">
<svg version="1.0" xmlns="http://www.w3.org/2000/svg"
 width="500.000000pt" height="500.000000pt" viewBox="0 0 500.000000 500.000000"
 preserveAspectRatio="xMidYMid meet">

<g transform="translate(0.000000,500.000000) scale(0.100000,-0.100000)"
fill="#000000" stroke="none">
<path d="M1540 3370 c-30 -22 -54 -40 -56 -40 -1 0 -18 7 -37 15 -42 17 -67
19 -67 5 0 -5 14 -10 30 -10 17 0 30 -3 30 -7 0 -5 17 -16 38 -26 48 -23 122
-93 122 -116 0 -5 6 -16 13 -23 14 -15 37 -97 37 -133 0 -14 5 -25 11 -25 19
0 2 98 -28 159 -15 31 -52 81 -82 111 -39 37 -45 46 -20 28 l36 -27 17 61 c9
33 15 62 13 64 -2 2 -28 -14 -57 -36z"/>
<path d="M930 3398 c0 -7 58 -138 70 -161 8 -13 4 -30 -15 -67 -42 -83 -25
-81 23 3 34 60 92 117 152 147 22 11 40 25 40 31 0 6 -27 -4 -60 -22 l-59 -31
-36 21 c-20 12 -41 19 -46 15 -5 -3 -8 0 -7 6 2 6 -12 23 -29 37 -18 14 -33
23 -33 21z m100 -88 c13 -8 12 -11 -5 -24 -22 -16 -41 -6 -32 18 7 18 16 20
37 6z m32 -32 c-7 -7 -12 -8 -12 -2 0 14 12 26 19 19 2 -3 -1 -11 -7 -17z
m-32 -26 c0 -13 -12 -22 -22 -16 -10 6 -1 24 13 24 5 0 9 -4 9 -8z"/>
<path d="M1227 3364 c-14 -15 5 -22 34 -14 45 13 48 20 7 20 -19 0 -38 -3 -41
-6z"/>
<path d="M1310 3360 c0 -5 9 -10 19 -10 11 0 23 5 26 10 4 6 -5 10 -19 10 -14
0 -26 -4 -26 -10z"/>
<path d="M1305 3290 c3 -5 1 -10 -4 -10 -6 0 -11 -13 -11 -30 0 -39 -26 -40
-35 -1 -6 27 -35 53 -35 31 0 -6 -8 -10 -18 -10 -21 0 -45 -50 -36 -76 7 -18
7 -18 -13 -1 -11 9 -23 14 -26 10 -4 -3 -7 -2 -7 4 0 5 11 16 25 23 14 7 23
15 20 18 -8 9 -55 -28 -55 -43 0 -8 -7 -15 -15 -15 -8 0 -19 -9 -25 -20 -8
-15 -8 -20 1 -20 6 0 8 -7 5 -15 -3 -9 1 -18 9 -21 23 -9 18 -24 -7 -24 -17 0
-19 -3 -10 -12 21 -21 13 -31 -20 -25 -18 3 -27 3 -20 0 10 -4 9 -8 -4 -18
-15 -10 -12 -12 17 -9 27 3 29 2 10 -4 -36 -11 -36 -29 -1 -37 31 -7 32 -25 1
-25 -13 0 -18 -8 -18 -26 0 -17 2 -22 8 -13 4 7 5 18 2 24 -4 5 -3 7 2 3 4 -4
14 -3 22 4 19 16 27 3 8 -15 -21 -22 -19 -34 3 -14 17 15 18 15 19 -3 1 -16
-5 -20 -30 -21 l-32 -1 28 -8 c16 -5 36 -6 44 -3 12 5 15 2 11 -14 -4 -17 -2
-19 15 -15 17 4 19 2 13 -13 -4 -10 -2 -21 5 -25 6 -4 -1 -7 -15 -7 -22 0 -24
2 -14 15 11 13 10 14 -11 7 -20 -6 -22 -4 -16 14 5 17 3 20 -11 14 -12 -4 -15
-3 -10 5 4 7 2 12 -3 12 -22 0 -10 -27 27 -61 35 -34 119 -88 108 -71 -2 4 -1
14 4 22 7 11 27 14 85 11 61 -2 83 1 115 18 38 20 39 20 45 1 8 -25 25 -26 32
-1 3 11 16 22 29 25 17 5 24 13 24 31 0 14 7 26 19 30 23 7 32 36 19 59 -7 12
-5 16 7 16 11 0 15 11 15 40 0 22 -5 40 -10 40 -6 0 -15 11 -20 25 -6 16 -15
23 -25 19 -8 -3 -12 -10 -9 -15 3 -5 10 -7 15 -4 5 3 6 -1 3 -10 -6 -15 -8
-15 -22 -2 -20 21 -8 49 20 45 13 -2 25 -13 30 -28 6 -23 7 -23 5 5 -2 22 -8
31 -27 36 -14 4 -19 7 -12 8 17 1 15 36 -2 50 -11 9 -20 9 -35 2 -33 -18 -40
-13 -28 20 11 27 10 32 -8 45 -11 8 -25 12 -31 10 -7 -3 -15 2 -18 10 -3 8
-12 14 -21 14 -8 0 -15 5 -15 11 0 8 -4 8 -15 -1 -11 -9 -19 -8 -37 4 -25 18
-42 21 -33 6z m31 -22 c4 -7 3 -8 -4 -4 -19 11 -14 -5 5 -20 10 -7 15 -15 11
-19 -10 -10 -51 32 -43 44 8 14 22 14 31 -1z m-86 -40 c0 -9 -13 -21 -31 -27
-32 -11 -49 -8 -49 11 0 6 6 5 16 -3 13 -11 14 -9 9 17 l-7 29 21 -25 21 -25
0 35 c0 26 3 31 10 20 5 -8 10 -22 10 -32z m150 32 c12 -8 12 -10 -5 -11 -13
0 -15 -3 -6 -6 11 -5 11 -7 0 -14 -12 -8 -11 -11 1 -19 8 -5 11 -10 5 -10 -24
0 -36 18 -29 43 7 29 11 32 34 17z m76 -48 c1 -7 0 -8 -3 -2 -2 5 -11 10 -19
10 -17 0 -19 -27 -1 -33 6 -2 9 -8 4 -13 -12 -12 -41 22 -33 41 7 19 48 17 52
-3z m-176 -49 c0 -32 -5 -41 -31 -56 -18 -10 -34 -16 -36 -13 -3 2 8 11 24 20
28 15 28 15 -25 12 -33 -3 -61 -11 -73 -22 -31 -28 -33 -10 -2 26 27 33 93 69
126 70 13 0 17 -8 17 -37z m88 21 c49 -20 90 -60 113 -109 22 -48 24 -89 5
-143 -14 -38 -13 -40 6 -45 14 -4 19 -12 16 -29 -4 -27 -37 -37 -50 -14 -5 9
-14 16 -20 16 -6 0 -3 -12 7 -26 18 -29 12 -47 -8 -21 -13 17 -25 17 -70 -1
-16 -7 -39 -12 -53 -12 -24 0 -24 1 -24 90 l0 90 52 -2 c49 -1 50 -1 27 -15
-13 -8 -16 -12 -6 -9 14 5 16 1 12 -22 -4 -21 -1 -18 11 11 16 35 19 37 60 37
24 0 44 5 44 10 0 6 -40 10 -100 10 l-100 0 0 100 c0 113 3 116 78 84z m-244
-3 c3 -5 -5 -20 -18 -33 -22 -24 -23 -25 -34 -7 -20 32 -15 41 21 34 24 -5 28
-4 17 4 -9 7 -10 11 -3 11 6 0 14 -4 17 -9z m404 -37 c3 -16 1 -16 -7 -4 -9
12 -11 11 -11 -7 0 -12 -4 -24 -9 -27 -12 -8 -34 21 -28 36 4 8 6 7 6 -4 1
-10 6 -18 12 -18 6 0 8 7 5 16 -3 9 -3 20 0 25 9 15 29 5 32 -17z m-330 -35
c-10 -5 -22 -19 -28 -29 -10 -18 -8 -19 22 -14 18 4 43 13 55 20 32 20 33 19
33 -36 l0 -50 -96 0 -95 0 3 32 c2 24 11 36 38 51 19 10 39 23 45 28 5 5 16 9
25 9 12 -1 12 -2 -2 -11z m372 -88 c0 -5 -6 -12 -12 -15 -10 -5 -10 -7 0 -12
22 -10 12 -24 -18 -24 -16 0 -30 5 -30 10 0 6 7 10 15 10 20 0 19 10 -2 26
-16 12 -15 13 15 14 17 0 32 -4 32 -9z m-510 -21 c0 -5 -6 -10 -14 -10 -8 0
-18 5 -21 10 -3 6 3 10 14 10 12 0 21 -4 21 -10z m102 -46 c-51 -30 -50 -50 2
-47 41 3 96 36 96 59 0 8 5 14 10 14 6 0 10 -37 10 -90 0 -84 -1 -90 -21 -90
-11 0 -29 5 -40 10 -16 9 -21 7 -31 -15 -6 -14 -15 -25 -20 -25 -5 0 -6 5 -2
11 4 8 0 9 -15 4 -12 -4 -21 -2 -21 4 0 6 5 11 11 11 6 0 9 9 6 20 -3 11 -1
20 4 20 5 0 9 -7 9 -15 0 -15 12 -20 23 -9 3 3 -11 20 -30 37 -35 31 -63 81
-63 112 0 12 12 15 58 15 l57 0 -43 -26z m88 7 c0 -13 -64 -41 -92 -40 -15 0
-6 6 24 15 26 8 50 19 53 24 8 12 15 13 15 1z m298 -39 c4 -28 -24 -41 -44
-20 -20 20 -7 50 20 46 13 -2 22 -12 24 -26z"/>
<path d="M1346 3144 c-21 -20 -20 -23 5 -17 16 4 20 2 17 -8 -3 -8 -15 -13
-27 -12 -30 4 -28 -31 4 -63 41 -41 98 -13 98 47 0 55 -62 89 -97 53z m82 -32
c2 -7 -3 -12 -11 -12 -18 0 -29 -24 -21 -45 4 -10 0 -15 -11 -15 -9 0 -15 6
-12 13 2 6 0 20 -5 30 -8 15 -5 20 11 24 12 3 21 10 21 15 0 13 23 5 28 -10z"/>
<path d="M1334 2948 c3 -13 6 -26 6 -30 0 -5 3 -8 8 -8 4 0 7 14 8 30 1 20 -4
30 -14 30 -10 0 -13 -7 -8 -22z"/>
<path d="M1361 2877 c-13 -21 -12 -21 5 -5 10 10 16 20 13 22 -3 3 -11 -5 -18
-17z"/>
<path d="M1486 2871 c-3 -5 1 -14 8 -20 16 -13 32 2 21 19 -8 12 -22 13 -29 1z"/>
<path d="M1525 2930 c-3 -6 1 -13 10 -16 19 -8 30 0 20 15 -8 14 -22 14 -30 1z"/>
<path d="M1037 3120 c-4 -15 0 -20 15 -20 16 0 18 3 9 14 -9 11 -9 15 1 19 9
4 8 6 -3 6 -9 1 -19 -8 -22 -19z"/>
<path d="M958 3084 c-5 -4 -8 -21 -8 -38 0 -21 3 -27 11 -19 6 6 9 23 7 38 -2
15 -6 23 -10 19z"/>
<path d="M1030 3080 c0 -5 5 -10 11 -10 5 0 7 5 4 10 -3 6 -8 10 -11 10 -2 0
-4 -4 -4 -10z"/>
<path d="M950 2981 c0 -17 5 -31 10 -31 6 0 10 11 10 24 0 14 -4 28 -10 31 -6
4 -10 -7 -10 -24z"/>
<path d="M1650 2976 c-12 -34 -13 -79 -1 -72 11 7 25 85 17 93 -3 3 -10 -6
-16 -21z"/>
<path d="M960 2920 c0 -20 50 -109 80 -144 l30 -34 -38 9 c-21 4 -76 21 -120
37 -45 16 -82 26 -82 23 1 -3 26 -26 56 -50 59 -47 58 -61 -3 -61 -54 0 -45
-16 22 -39 59 -21 65 -26 65 -51 0 -26 4 -28 83 -45 163 -36 351 -36 515 0 78
17 82 19 82 45 0 25 6 30 65 51 67 23 76 39 22 39 -64 0 -63 14 1 66 34 27 60
49 59 51 -1 1 -40 -12 -86 -28 -46 -16 -102 -34 -123 -38 l-38 -9 30 34 c16
19 39 54 50 77 l20 42 -32 -40 c-67 -83 -135 -141 -179 -154 -24 -7 -54 -19
-66 -27 -14 -9 -24 -10 -28 -4 -3 6 -17 10 -30 10 -13 0 -27 -4 -30 -10 -4 -6
-15 -4 -30 6 -13 8 -29 14 -37 13 -15 -3 -67 20 -86 38 -7 7 -19 13 -25 13 -7
0 -18 9 -25 20 -7 11 -18 20 -25 20 -6 0 -28 34 -47 75 -32 68 -50 92 -50 65z
m36 -198 c-10 -2 -26 3 -35 12 -15 15 -13 16 19 4 26 -9 30 -13 16 -16z m664
13 c-7 -8 -22 -15 -34 -14 -18 0 -16 3 9 14 39 18 40 18 25 0z m-140 -35 c0
-5 -4 -10 -10 -10 -5 0 -10 5 -10 10 0 6 5 10 10 10 6 0 10 -4 10 -10z m-380
-10 c0 -5 -5 -10 -11 -10 -5 0 -7 5 -4 10 3 6 8 10 11 10 2 0 4 -4 4 -10z m40
-10 c12 -8 11 -10 -7 -10 -13 0 -23 5 -23 10 0 13 11 13 30 0z m300 0 c0 -5
-7 -10 -15 -10 -8 0 -15 5 -15 10 0 6 7 10 15 10 8 0 15 -4 15 -10z m-301 -37
c30 -5 23 -12 -15 -15 -16 -1 -32 -7 -36 -13 -5 -6 -8 -6 -8 3 0 7 -14 12 -36
12 -32 0 -36 -3 -31 -21 4 -15 2 -19 -10 -15 -8 3 -20 6 -27 6 -8 0 -13 15
-14 39 l-2 38 78 -15 c42 -8 88 -16 101 -19z m441 -2 l0 -38 -82 -19 c-100
-22 -390 -26 -410 -6 -9 9 2 12 50 12 35 0 62 4 62 10 0 6 5 10 11 10 5 0 7
-5 4 -10 -4 -7 32 -10 112 -8 101 3 118 5 121 20 3 15 -10 16 -123 15 -70 -1
-129 1 -131 4 -2 3 58 9 134 12 108 5 196 18 250 36 1 1 2 -16 2 -38z m-517
-58 c-7 -2 -19 -2 -25 0 -7 3 -2 5 12 5 14 0 19 -2 13 -5z"/>
</g>
</svg>
